<?xml version="1.0" standalone="no"?>
<!DOCTYPE svg PUBLIC "-//W3C//DTD SVG 20010904//EN"
 "http://www.w3.org/TR/2001/REC-SVG-20010904/DTD/svg10.dtd">
<svg version="1.0" xmlns="http://www.w3.org/2000/svg"
 width="1000.000000pt" height="782.000000pt" viewBox="0 0 1000.000000 782.000000"
 preserveAspectRatio="xMidYMid meet">

<g transform="translate(0.000000,782.000000) scale(0.100000,-0.100000)"
fill="#f64d08" stroke="none">
<path d="M0 3910 l0 -3910 5000 0 5000 0 0 3910 0 3910 -5000 0 -5000 0 0
-3910z m9869 3794 c20 -26 21 -39 21 -300 l0 -274 -545 0 -545 0 0 282 c0 248
2 284 17 300 15 17 45 18 524 18 l508 0 20 -26z m21 -638 c0 -19 -9 -45 -21
-60 l-20 -26 -505 0 c-491 0 -505 1 -524 20 -13 13 -20 33 -20 60 l0 40 545 0
545 0 0 -34z m-380 -196 l0 -100 34 0 c44 0 66 -9 66 -26 0 -12 -44 -14 -260
-14 -216 0 -260 2 -260 14 0 17 22 26 61 26 l29 0 0 100 0 100 165 0 165 0 0
-100z m-2910 -2114 c418 -47 700 -121 960 -251 297 -149 506 -351 627 -605
163 -344 217 -857 132 -1272 -87 -429 -334 -787 -694 -1008 -188 -116 -450
-217 -686 -264 -294 -60 -276 -59 -1396 -63 l-1033 -4 0 53 c0 29 5 163 10
299 29 699 29 2050 0 2787 -7 163 -8 297 -4 302 10 9 314 28 639 40 379 14
1277 5 1445 -14z m-4730 -1267 l0 -1241 408 7 c632 9 1343 25 1606 35 132 5
242 8 244 5 3 -2 -7 -64 -22 -137 -39 -199 -47 -286 -53 -591 l-6 -277 -1670
0 -1670 0 7 212 c21 668 26 905 26 1508 0 603 -4 795 -26 1503 l-7 217 582 0
581 0 0 -1241z"/>
<path d="M9173 7619 c-27 -10 -32 -59 -8 -79 8 -7 15 -23 15 -35 0 -12 -7 -28
-15 -35 -8 -7 -15 -25 -15 -41 0 -23 6 -32 28 -41 37 -16 112 -88 112 -109 0
-9 9 -24 20 -34 17 -15 24 -16 45 -7 35 16 42 40 22 74 -21 37 -22 66 -1 89
19 21 12 67 -11 76 -54 20 -95 -39 -56 -81 24 -25 28 -61 7 -69 -7 -3 -29 10
-47 29 -26 27 -33 42 -31 68 2 20 -3 37 -12 45 -20 17 -20 55 0 71 21 19 14
71 -11 80 -11 4 -30 4 -42 -1z m45 -42 c4 -20 -25 -34 -40 -19 -15 15 -1 44
19 40 10 -2 19 -11 21 -21z m2 -143 c0 -19 -28 -30 -42 -16 -8 8 -8 15 1 26
14 17 41 10 41 -10z m138 -2 c3 -17 -2 -22 -17 -22 -14 0 -21 6 -21 18 0 38
33 41 38 4z m0 -150 c3 -17 -2 -22 -17 -22 -14 0 -21 6 -21 18 0 38 33 41 38
4z"/>
<path d="M9312 7614 c-24 -17 -29 -53 -10 -72 7 -7 26 -12 43 -12 39 0 95 -54
95 -91 0 -14 9 -34 20 -44 11 -10 20 -28 20 -39 0 -12 -9 -27 -20 -34 -26 -16
-26 -54 1 -78 19 -17 23 -17 47 -3 34 19 40 53 13 76 -27 22 -27 55 -1 78 38
34 14 85 -39 85 -36 0 -91 56 -91 92 0 23 -30 58 -50 58 -3 0 -16 -7 -28 -16z
m45 -30 c8 -21 -13 -42 -28 -27 -13 13 -5 43 11 43 6 0 13 -7 17 -16z m153
-155 c0 -12 -7 -19 -19 -19 -22 0 -34 23 -19 38 15 15 38 3 38 -19z m-2 -147
c3 -16 -2 -22 -16 -22 -24 0 -35 23 -19 39 16 16 31 8 35 -17z"/>
<path d="M9462 7614 c-24 -17 -29 -53 -10 -72 19 -19 66 -15 78 7 14 28 13 38
-10 61 -24 24 -29 24 -58 4z m45 -30 c3 -8 1 -20 -5 -26 -15 -15 -43 8 -35 28
7 19 32 18 40 -2z"/>
<path d="M9162 7318 c-20 -20 -14 -66 9 -79 27 -14 64 1 72 30 11 44 -49 81
-81 49z m58 -34 c0 -19 -28 -30 -42 -16 -8 8 -8 15 1 26 14 17 41 10 41 -10z"/>
<path d="M5920 3823 c-19 -1 -77 -6 -127 -9 l-93 -6 0 -785 0 -784 448 3 c419
4 452 5 523 25 174 49 268 122 338 264 134 273 134 715 1 986 -82 166 -198
254 -390 293 -83 17 -132 20 -380 18 -157 -1 -301 -3 -320 -5z"/>
</g>
</svg>
